<svg width="512" height="512" viewBox="0 0 512 512" fill="none" xmlns="http://www.w3.org/2000/svg">
<g clip-path="url(#clip0_914_73599)">
<path d="M416 0H96C42.9807 0 0 42.9807 0 96V416C0 469.019 42.9807 512 96 512H416C469.019 512 512 469.019 512 416V96C512 42.9807 469.019 0 416 0Z" fill="#166534"/>
<rect x="47.2667" y="47.2667" width="417.467" height="417.467" rx="55.7333" stroke="white" stroke-width="16.5333"/>
<path d="M473 256H39" stroke="white" stroke-width="16.5333"/>
<mask id="path-4-outside-1_914_73599" maskUnits="userSpaceOnUse" x="90.1992" y="174.699" width="330" height="164" fill="black">
<rect fill="white" x="90.1992" y="174.699" width="330" height="164"/>
<path d="M136.525 321.733C118.901 321.733 107.377 311.565 107.377 291.398C107.377 276.146 111.444 266.317 121.104 266.317C128.899 266.317 132.119 270.723 132.119 278.18C132.119 288.348 125.849 290.381 125.849 296.652C125.849 301.566 130.424 304.956 136.356 304.956C143.982 304.956 147.371 299.533 147.371 289.195C147.371 271.91 146.863 235.983 146.185 219.714C146.015 212.766 147.202 210.902 142.626 209.715C135.508 208.021 134.661 206.326 134.661 199.547C134.661 193.108 138.22 192.43 154.15 192.43C171.435 192.43 173.299 193.108 173.299 201.242C173.299 207.173 171.605 207.682 169.232 209.546C166.521 211.241 166.351 212.935 166.351 218.358C166.351 244.117 167.368 262.928 167.368 290.212C167.368 309.87 157.031 321.733 136.525 321.733ZM239.115 320.038C224.71 320.208 218.101 320.716 218.27 311.565C218.44 305.125 220.134 303.939 224.202 301.566C227.252 300.38 227.083 298.177 227.252 293.262C227.93 276.146 227.591 231.407 227.252 220.222C227.083 214.121 226.913 212.935 224.71 211.579C222.168 210.054 218.779 210.563 218.779 201.92C218.779 193.447 222.676 192.938 234.031 192.938C241.657 192.938 257.078 193.616 264.196 193.616C268.941 193.616 270.297 191.582 274.194 191.582C280.803 191.582 281.82 196.497 284.701 208.19C287.243 218.019 288.599 223.951 288.768 227.848C288.768 233.102 286.904 235.305 282.329 235.644C276.228 236.152 274.533 231.238 270.297 219.883C266.907 210.393 267.585 210.732 257.587 210.732C243.86 210.732 246.741 209.376 246.741 231.577C246.741 250.896 244.707 251.743 254.197 251.743C262.671 251.743 262.162 248.184 261.654 242.083C260.806 235.983 261.484 234.457 263.857 234.457C269.449 234.457 270.127 238.355 271.822 250.218C274.703 271.062 275.719 280.891 269.788 280.722C264.874 280.552 264.196 279.197 263.518 272.418C263.009 265.978 262.162 265.47 255.214 265.47C245.724 265.47 247.08 266.317 246.91 283.942C246.571 302.075 247.249 300.719 251.994 302.414C256.909 304.278 259.959 304.956 259.959 311.904C259.959 320.038 255.553 320.038 239.115 320.038ZM391.243 321.055C387.006 321.224 386.667 319.021 386.667 312.921C386.667 308.175 387.006 304.956 384.464 304.956C382.6 304.956 381.922 308.006 380.058 311.734C377.516 317.157 373.279 320.716 366.67 320.716C359.722 320.716 353.113 318.513 348.029 313.09C338.369 302.922 333.624 282.925 333.624 251.404C333.624 225.645 338.03 208.36 346.842 199.208C351.588 194.124 357.858 191.752 365.314 191.752C371.585 191.752 375.482 194.463 377.855 199.208C379.888 201.92 380.397 202.598 382.769 202.598C386.328 202.598 382.939 191.921 388.362 191.921C392.598 192.091 393.446 195.65 394.971 212.257C395.649 221.07 396.496 226.662 396.496 230.56C396.327 234.627 395.31 236.322 392.09 237.338C384.972 239.033 382.939 237.338 378.363 224.628C374.635 213.783 371.924 209.207 366.331 209.207C363.281 209.207 360.4 210.224 358.197 212.766C355.485 215.986 353.96 223.273 353.96 235.813C353.96 274.791 358.366 292.076 364.298 297.16C366.84 299.533 369.72 300.041 371.924 300.041C375.991 300.041 377.855 298.516 379.211 295.296C380.566 292.076 381.244 286.992 381.244 276.316C381.244 271.062 379.55 271.062 375.482 270.893C371.585 270.723 369.551 270.215 369.551 263.606C369.551 252.929 374.635 254.116 391.921 254.116C398.021 254.116 402.597 253.268 402.936 260.894C403.105 269.537 402.597 269.537 400.394 270.723C397.513 272.926 397.344 274.282 397.344 279.197C397.344 292.754 398.36 300.041 398.021 309.192C397.682 315.971 397.174 320.885 391.243 321.055Z"/>
</mask>
<path d="M136.525 321.733C118.901 321.733 107.377 311.565 107.377 291.398C107.377 276.146 111.444 266.317 121.104 266.317C128.899 266.317 132.119 270.723 132.119 278.18C132.119 288.348 125.849 290.381 125.849 296.652C125.849 301.566 130.424 304.956 136.356 304.956C143.982 304.956 147.371 299.533 147.371 289.195C147.371 271.91 146.863 235.983 146.185 219.714C146.015 212.766 147.202 210.902 142.626 209.715C135.508 208.021 134.661 206.326 134.661 199.547C134.661 193.108 138.22 192.43 154.15 192.43C171.435 192.43 173.299 193.108 173.299 201.242C173.299 207.173 171.605 207.682 169.232 209.546C166.521 211.241 166.351 212.935 166.351 218.358C166.351 244.117 167.368 262.928 167.368 290.212C167.368 309.87 157.031 321.733 136.525 321.733ZM239.115 320.038C224.71 320.208 218.101 320.716 218.27 311.565C218.44 305.125 220.134 303.939 224.202 301.566C227.252 300.38 227.083 298.177 227.252 293.262C227.93 276.146 227.591 231.407 227.252 220.222C227.083 214.121 226.913 212.935 224.71 211.579C222.168 210.054 218.779 210.563 218.779 201.92C218.779 193.447 222.676 192.938 234.031 192.938C241.657 192.938 257.078 193.616 264.196 193.616C268.941 193.616 270.297 191.582 274.194 191.582C280.803 191.582 281.82 196.497 284.701 208.19C287.243 218.019 288.599 223.951 288.768 227.848C288.768 233.102 286.904 235.305 282.329 235.644C276.228 236.152 274.533 231.238 270.297 219.883C266.907 210.393 267.585 210.732 257.587 210.732C243.86 210.732 246.741 209.376 246.741 231.577C246.741 250.896 244.707 251.743 254.197 251.743C262.671 251.743 262.162 248.184 261.654 242.083C260.806 235.983 261.484 234.457 263.857 234.457C269.449 234.457 270.127 238.355 271.822 250.218C274.703 271.062 275.719 280.891 269.788 280.722C264.874 280.552 264.196 279.197 263.518 272.418C263.009 265.978 262.162 265.47 255.214 265.47C245.724 265.47 247.08 266.317 246.91 283.942C246.571 302.075 247.249 300.719 251.994 302.414C256.909 304.278 259.959 304.956 259.959 311.904C259.959 320.038 255.553 320.038 239.115 320.038ZM391.243 321.055C387.006 321.224 386.667 319.021 386.667 312.921C386.667 308.175 387.006 304.956 384.464 304.956C382.6 304.956 381.922 308.006 380.058 311.734C377.516 317.157 373.279 320.716 366.67 320.716C359.722 320.716 353.113 318.513 348.029 313.09C338.369 302.922 333.624 282.925 333.624 251.404C333.624 225.645 338.03 208.36 346.842 199.208C351.588 194.124 357.858 191.752 365.314 191.752C371.585 191.752 375.482 194.463 377.855 199.208C379.888 201.92 380.397 202.598 382.769 202.598C386.328 202.598 382.939 191.921 388.362 191.921C392.598 192.091 393.446 195.65 394.971 212.257C395.649 221.07 396.496 226.662 396.496 230.56C396.327 234.627 395.31 236.322 392.09 237.338C384.972 239.033 382.939 237.338 378.363 224.628C374.635 213.783 371.924 209.207 366.331 209.207C363.281 209.207 360.4 210.224 358.197 212.766C355.485 215.986 353.96 223.273 353.96 235.813C353.96 274.791 358.366 292.076 364.298 297.16C366.84 299.533 369.72 300.041 371.924 300.041C375.991 300.041 377.855 298.516 379.211 295.296C380.566 292.076 381.244 286.992 381.244 276.316C381.244 271.062 379.55 271.062 375.482 270.893C371.585 270.723 369.551 270.215 369.551 263.606C369.551 252.929 374.635 254.116 391.921 254.116C398.021 254.116 402.597 253.268 402.936 260.894C403.105 269.537 402.597 269.537 400.394 270.723C397.513 272.926 397.344 274.282 397.344 279.197C397.344 292.754 398.36 300.041 398.021 309.192C397.682 315.971 397.174 320.885 391.243 321.055Z" fill="#166534"/>
<path d="M146.185 219.714L129.656 220.117L129.66 220.26L129.666 220.402L146.185 219.714ZM142.626 209.715L146.775 193.711L146.616 193.67L146.455 193.632L142.626 209.715ZM169.232 209.546L177.995 223.566L178.748 223.095L179.447 222.546L169.232 209.546ZM136.525 321.733V305.199C130.841 305.199 128.211 303.61 127.008 302.413C125.836 301.246 123.91 298.353 123.91 291.398H107.377H90.8435C90.8435 304.61 94.6792 316.885 103.675 325.843C112.641 334.771 124.585 338.266 136.525 338.266V321.733ZM107.377 291.398H123.91C123.91 288.279 124.121 285.784 124.453 283.872C124.792 281.919 125.193 280.951 125.348 280.646C125.476 280.396 125.171 281.104 124.055 281.848C122.829 282.665 121.639 282.851 121.104 282.851V266.317V249.784C115.739 249.784 110.418 251.198 105.713 254.335C101.117 257.398 97.9845 261.516 95.8877 265.63C91.9088 273.436 90.8435 282.801 90.8435 291.398H107.377ZM121.104 266.317V282.851C121.537 282.851 121.136 282.917 120.257 282.583C119.275 282.212 118.097 281.488 117.092 280.34C115.16 278.132 115.586 276.451 115.586 278.18H132.119H148.652C148.652 272.452 147.468 264.84 141.977 258.565C136.112 251.862 128.114 249.784 121.104 249.784V266.317ZM132.119 278.18H115.586C115.586 278.594 115.554 278.837 115.536 278.949C115.518 279.056 115.503 279.103 115.496 279.123C115.482 279.163 115.416 279.373 114.879 280.251C114.375 281.075 109.315 287.762 109.315 296.652H125.849H142.382C142.382 299.271 140.457 301.806 143.089 297.503C144.119 295.818 145.621 293.222 146.783 289.825C147.971 286.351 148.652 282.508 148.652 278.18H132.119ZM125.849 296.652H109.315C109.315 314.366 125.455 321.489 136.356 321.489V304.956V288.422C136.405 288.422 137.518 288.425 139.008 289.58C140.735 290.919 142.382 293.481 142.382 296.652H125.849ZM136.356 304.956V321.489C144.668 321.489 153.006 318.174 158.395 310.249C162.957 303.54 163.904 295.612 163.904 289.195H147.371H130.838C130.838 290.933 130.69 291.951 130.584 292.425C130.478 292.902 130.494 292.474 131.051 291.655C131.69 290.716 132.738 289.717 134.116 289.053C135.401 288.434 136.311 288.422 136.356 288.422V304.956ZM147.371 289.195H163.904C163.904 271.797 163.395 235.616 162.704 219.026L146.185 219.714L129.666 220.402C130.33 236.349 130.838 272.023 130.838 289.195H147.371ZM146.185 219.714L162.713 219.311C162.681 217.985 162.713 217.056 162.732 215.612C162.745 214.681 162.815 212.036 162.27 209.311C161.567 205.795 159.77 201.547 155.734 198.151C152.373 195.322 148.736 194.219 146.775 193.711L142.626 209.715L138.477 225.72C138.472 225.718 138.376 225.694 138.212 225.639C138.049 225.585 137.782 225.49 137.442 225.34C136.772 225.047 135.658 224.474 134.443 223.451C133.157 222.369 132.032 221.013 131.184 219.45C130.374 217.956 130.013 216.634 129.845 215.796C129.762 215.38 129.72 215.051 129.699 214.845C129.678 214.639 129.672 214.509 129.671 214.485C129.671 214.481 129.676 214.63 129.669 215.163C129.657 216.059 129.604 217.969 129.656 220.117L146.185 219.714ZM142.626 209.715L146.455 193.632C145.025 193.291 144.918 193.172 145.358 193.377C145.997 193.674 147.716 194.619 149.246 196.679C150.746 198.698 151.129 200.535 151.211 201.027C151.261 201.326 151.194 201.108 151.194 199.547H134.661H118.128C118.128 202.111 117.858 209.876 122.702 216.397C127.756 223.2 135.475 225.008 138.796 225.799L142.626 209.715ZM134.661 199.547H151.194C151.194 199.108 151.329 201.42 149.636 204.236C147.631 207.572 144.796 208.874 143.729 209.235C143.066 209.459 143.254 209.275 145.437 209.136C147.437 209.009 150.183 208.963 154.15 208.963V192.43V175.896C150.151 175.896 146.479 175.936 143.332 176.136C140.367 176.326 136.678 176.713 133.134 177.912C129.186 179.247 124.466 181.927 121.296 187.201C118.438 191.955 118.128 196.767 118.128 199.547H134.661ZM154.15 192.43V208.963C158.509 208.963 161.303 209.011 163.228 209.152C164.15 209.22 164.581 209.29 164.693 209.311C164.821 209.335 164.279 209.25 163.402 208.853C162.443 208.42 161.089 207.618 159.784 206.238C158.46 204.837 157.667 203.351 157.224 202.149C156.823 201.061 156.749 200.314 156.745 200.276C156.74 200.235 156.766 200.475 156.766 201.242H173.299H189.833C189.833 199.15 189.809 194.944 188.252 190.718C186.213 185.183 182.198 181.06 177.011 178.717C172.923 176.871 168.638 176.393 165.641 176.174C162.355 175.933 158.433 175.896 154.15 175.896V192.43ZM173.299 201.242H156.766C156.766 202.016 156.703 201.91 156.834 201.303C156.993 200.563 157.394 199.283 158.318 197.871C159.219 196.492 160.167 195.69 160.407 195.494C160.479 195.435 160.49 195.431 160.204 195.644C159.993 195.801 159.515 196.155 159.018 196.545L169.232 209.546L179.447 222.546C179.543 222.471 179.636 222.401 179.972 222.151C180.233 221.956 180.766 221.56 181.331 221.098C182.556 220.097 184.371 218.448 185.993 215.967C189.321 210.877 189.833 205.405 189.833 201.242H173.299ZM169.232 209.546L160.47 195.526C156.55 197.975 152.673 201.828 150.897 207.944C149.725 211.983 149.818 216.364 149.818 218.358H166.351H182.885C182.885 216.986 182.899 216.328 182.922 215.946C182.947 215.552 182.948 216.147 182.653 217.164C182.293 218.404 181.595 219.937 180.397 221.39C179.302 222.719 178.264 223.398 177.995 223.566L169.232 209.546ZM166.351 218.358H149.818C149.818 231.449 150.077 242.768 150.33 254.084C150.585 265.418 150.835 276.775 150.835 290.212H167.368H183.901C183.901 276.365 183.643 264.675 183.389 253.342C183.134 241.992 182.885 231.026 182.885 218.358H166.351ZM167.368 290.212H150.835C150.835 297.296 148.99 300.544 147.645 301.962C146.437 303.235 143.587 305.199 136.525 305.199V321.733V338.266C149.969 338.266 162.541 334.3 171.627 324.727C180.577 315.298 183.901 302.786 183.901 290.212H167.368ZM239.115 320.038V303.505H239.017L238.92 303.506L239.115 320.038ZM218.27 311.565L201.743 311.13L201.741 311.194L201.74 311.259L218.27 311.565ZM224.202 301.566L218.209 286.157L216.996 286.629L215.871 287.285L224.202 301.566ZM227.252 293.262L210.732 292.608L210.73 292.65L210.728 292.693L227.252 293.262ZM227.252 220.222L210.725 220.681L210.726 220.702L210.726 220.723L227.252 220.222ZM224.71 211.579L233.375 197.499L233.296 197.45L233.216 197.402L224.71 211.579ZM284.701 208.19L268.648 212.145L268.671 212.238L268.694 212.33L284.701 208.19ZM288.768 227.848H305.302V227.489L305.286 227.13L288.768 227.848ZM282.329 235.644L281.107 219.156L281.031 219.161L280.956 219.168L282.329 235.644ZM270.297 219.883L254.726 225.444L254.766 225.554L254.806 225.663L270.297 219.883ZM261.654 242.083L278.13 240.71L278.092 240.258L278.03 239.809L261.654 242.083ZM271.822 250.218L288.199 247.954L288.194 247.917L288.189 247.88L271.822 250.218ZM269.788 280.722L269.218 297.245L269.267 297.247L269.316 297.248L269.788 280.722ZM263.518 272.418L247.036 273.719L247.049 273.891L247.067 274.063L263.518 272.418ZM246.91 283.942L263.441 284.251L263.442 284.176L263.443 284.101L246.91 283.942ZM251.994 302.414L257.858 286.955L257.707 286.898L257.555 286.843L251.994 302.414ZM239.115 320.038L238.92 303.506C235.055 303.551 232.428 303.605 230.204 303.545C227.876 303.482 227.443 303.305 227.834 303.418C228.575 303.633 231.217 304.634 233.205 307.629C234.971 310.291 234.791 312.424 234.801 311.871L218.27 311.565L201.74 311.259C201.665 315.281 202.247 320.783 205.655 325.917C209.285 331.385 214.447 333.965 218.62 335.175C222.443 336.284 226.352 336.52 229.31 336.6C232.371 336.683 235.972 336.61 239.309 336.57L239.115 320.038ZM218.27 311.565L234.798 312C234.824 311.012 234.898 310.947 234.796 311.381C234.662 311.954 234.297 313.089 233.435 314.354C232.59 315.592 231.722 316.287 231.449 316.491C231.338 316.573 231.336 316.566 231.54 316.439C231.752 316.306 232.041 316.134 232.532 315.847L224.202 301.566L215.871 287.285C214.401 288.142 209.514 290.739 206.114 295.727C202.452 301.097 201.854 306.904 201.743 311.13L218.27 311.565ZM224.202 301.566L230.194 316.975C232.615 316.034 235.529 314.447 238.087 311.677C240.7 308.848 242.047 305.756 242.752 303.184C243.391 300.854 243.56 298.718 243.636 297.468C243.709 296.266 243.746 294.702 243.775 293.832L227.252 293.262L210.728 292.693C210.674 294.28 210.668 294.834 210.63 295.465C210.595 296.047 210.583 295.458 210.862 294.44C211.207 293.183 212.014 291.171 213.795 289.242C215.522 287.372 217.313 286.506 218.209 286.157L224.202 301.566ZM227.252 293.262L243.772 293.917C244.471 276.268 244.123 231.108 243.778 219.722L227.252 220.222L210.726 220.723C211.059 231.707 211.388 276.025 210.732 292.608L227.252 293.262ZM227.252 220.222L243.779 219.763C243.716 217.514 243.677 213.335 242.682 209.725C242.015 207.308 240.839 204.63 238.756 202.11C236.804 199.749 234.688 198.307 233.375 197.499L224.71 211.579L216.045 225.66C215.833 225.53 214.565 224.745 213.27 223.178C211.843 221.453 211.133 219.707 210.806 218.518C210.551 217.595 210.56 217.111 210.606 217.723C210.647 218.274 210.682 219.128 210.725 220.681L227.252 220.222ZM224.71 211.579L233.216 197.402C232.06 196.708 231.03 196.234 230.426 195.967C230.129 195.835 229.842 195.713 229.703 195.654C229.524 195.577 229.479 195.557 229.459 195.548C229.385 195.515 230.853 196.128 232.374 197.621C233.145 198.378 233.786 199.214 234.283 200.071C234.769 200.907 235.039 201.626 235.184 202.11C235.444 202.977 235.312 203.12 235.312 201.92H218.779H202.245C202.245 207.835 203.302 215.418 209.208 221.216C211.894 223.854 214.687 225.165 215.963 225.736C217.974 226.635 216.702 226.056 216.204 225.757L224.71 211.579ZM218.779 201.92H235.312C235.312 200.781 235.491 201.791 234.709 203.575C234.263 204.595 233.555 205.75 232.508 206.835C231.469 207.912 230.381 208.623 229.488 209.066C227.971 209.817 227.131 209.728 228.368 209.614C229.482 209.512 231.151 209.471 234.031 209.471V192.938V176.405C231.233 176.405 228.157 176.428 225.347 176.686C222.659 176.932 218.716 177.499 214.805 179.438C210.25 181.695 206.577 185.387 204.421 190.308C202.553 194.572 202.245 198.822 202.245 201.92H218.779ZM234.031 192.938V209.471C237.539 209.471 243.009 209.631 248.812 209.803C254.384 209.969 260.327 210.149 264.196 210.149V193.616V177.083C260.946 177.083 255.621 176.924 249.795 176.751C244.202 176.585 238.148 176.405 234.031 176.405V192.938ZM264.196 193.616V210.149C266.622 210.149 268.802 209.883 270.809 209.436C272.732 209.007 274.283 208.452 275.088 208.164C276.703 207.586 275.487 208.116 274.194 208.116V191.582V175.049C269.004 175.049 265.161 176.596 263.937 177.034C263.323 177.254 263.402 177.208 263.615 177.161C263.736 177.134 263.869 177.111 263.996 177.097C264.056 177.09 264.105 177.087 264.142 177.085C264.178 177.083 264.196 177.083 264.196 177.083V193.616ZM274.194 191.582V208.116C273.796 208.116 271.91 208.032 269.697 206.701C267.48 205.367 266.49 203.716 266.27 203.306C266.15 203.08 266.371 203.443 266.881 205.22C267.375 206.944 267.884 209.044 268.648 212.145L284.701 208.19L300.754 204.235C299.608 199.583 298.11 192.718 295.421 187.697C293.761 184.596 291.098 180.986 286.741 178.365C282.389 175.747 277.897 175.049 274.194 175.049V191.582ZM284.701 208.19L268.694 212.33C271.38 222.712 272.173 226.778 272.251 228.566L288.768 227.848L305.286 227.13C305.025 221.123 303.107 213.326 300.708 204.05L284.701 208.19ZM288.768 227.848H272.235C272.235 229.075 271.906 226.203 274.545 223.026C275.934 221.354 277.576 220.306 278.98 219.729C280.242 219.211 281.096 219.156 281.107 219.156L282.329 235.644L283.55 252.132C288.06 251.798 294.896 250.277 299.983 244.152C304.698 238.475 305.302 231.875 305.302 227.848H288.768ZM282.329 235.644L280.956 219.168C281.782 219.099 283.824 219.134 286.136 220.343C288.305 221.478 289.284 222.911 289.387 223.067C289.422 223.118 289.105 222.626 288.378 220.874C287.671 219.17 286.899 217.084 285.787 214.103L270.297 219.883L254.806 225.663C256.551 230.337 258.791 236.766 261.84 241.357C263.659 244.098 266.47 247.373 270.806 249.642C275.283 251.984 279.825 252.443 283.702 252.12L282.329 235.644ZM270.297 219.883L285.867 214.323C285.214 212.496 284.308 209.824 283.437 207.829C282.517 205.724 280.527 201.588 276.189 198.41C271.766 195.171 267.147 194.557 264.69 194.351C262.404 194.161 259.574 194.199 257.587 194.199V210.732V227.265C258.958 227.265 259.865 227.26 260.702 227.269C261.527 227.277 261.853 227.296 261.938 227.303C262.031 227.311 261.439 227.275 260.514 227.008C259.476 226.707 258.081 226.135 256.651 225.087C255.231 224.048 254.3 222.923 253.749 222.113C253.259 221.392 253.07 220.917 253.137 221.07C253.2 221.215 253.344 221.571 253.641 222.392C253.782 222.781 253.935 223.214 254.119 223.734C254.298 224.239 254.505 224.823 254.726 225.444L270.297 219.883ZM257.587 210.732V194.199C255.387 194.199 251.027 194.067 247.931 194.477C246.026 194.729 242.75 195.352 239.412 197.421C235.616 199.774 233.126 203.113 231.712 206.574C230.495 209.552 230.184 212.349 230.063 214.035C229.933 215.833 229.945 217.691 229.975 219.261C230.04 222.786 230.207 226.184 230.207 231.577H246.741H263.274C263.274 225.869 263.081 221.111 263.035 218.647C263.009 217.222 263.028 216.626 263.043 216.415C263.067 216.093 263.04 217.325 262.321 219.084C261.917 220.072 261.277 221.277 260.28 222.498C259.265 223.741 258.08 224.754 256.833 225.527C254.498 226.974 252.515 227.225 252.271 227.258C251.99 227.295 252.111 227.256 253.264 227.25C253.773 227.248 254.355 227.251 255.101 227.255C255.821 227.26 256.668 227.265 257.587 227.265V210.732ZM246.741 231.577H230.207C230.207 236.271 230.088 239.428 230.04 242.627C230.005 244.916 229.904 249.17 230.901 253.036C231.507 255.383 232.714 258.505 235.282 261.409C237.941 264.415 241.08 266.087 243.8 266.994C248.002 268.394 252.597 268.276 254.197 268.276V251.743V235.21C253.032 235.21 252.542 235.193 252.33 235.178C252.057 235.158 252.929 235.181 254.257 235.624C255.833 236.149 258.082 237.276 260.052 239.503C261.932 241.629 262.652 243.74 262.919 244.773C263.157 245.696 263.137 246.169 263.112 245.655C263.09 245.207 263.082 244.458 263.103 243.128C263.139 240.735 263.274 236.542 263.274 231.577H246.741ZM254.197 251.743V268.276C259.198 268.276 270.358 267.491 275.928 256.894C278.161 252.646 278.403 248.535 278.427 246.35C278.451 244.177 278.223 241.832 278.13 240.71L261.654 242.083L245.177 243.456C245.25 244.332 245.297 244.853 245.331 245.364C245.364 245.848 245.362 246.004 245.362 245.983C245.363 245.966 245.365 245.51 245.498 244.793C245.637 244.05 245.945 242.866 246.659 241.508C247.404 240.09 248.45 238.755 249.765 237.648C251.042 236.573 252.276 235.961 253.168 235.624C254.712 235.041 255.429 235.21 254.197 235.21V251.743ZM261.654 242.083L278.03 239.809C277.95 239.234 277.9 238.799 277.871 238.48C277.856 238.323 277.848 238.206 277.843 238.124C277.838 238.042 277.837 238.007 277.837 238.012C277.837 238.016 277.839 238.076 277.835 238.183C277.831 238.289 277.822 238.462 277.798 238.69C277.754 239.117 277.641 239.922 277.318 240.947C276.601 243.226 274.829 246.531 271.112 248.839C267.812 250.887 264.787 250.991 263.857 250.991V234.457V217.924C261.74 217.924 257.741 218.219 253.673 220.744C249.188 223.528 246.855 227.595 245.777 231.018C244.147 236.197 244.905 241.675 245.278 244.358L261.654 242.083ZM263.857 234.457V250.991C263.434 250.991 261.098 250.93 258.425 249.251C255.655 247.51 254.487 245.273 254.166 244.543C253.943 244.037 254.087 244.169 254.41 245.859C254.713 247.439 255.019 249.506 255.455 252.556L271.822 250.218L288.189 247.88C287.777 244.998 287.363 242.13 286.887 239.643C286.432 237.265 285.739 234.199 284.436 231.235C283.035 228.048 280.543 224.096 276.019 221.253C271.594 218.472 267.076 217.924 263.857 217.924V234.457ZM271.822 250.218L255.444 252.481C256.957 263.428 257.667 269.549 257.581 272.933C257.533 274.867 257.226 273.281 258.632 270.803C259.533 269.214 261.152 267.243 263.741 265.822C266.29 264.422 268.697 264.151 270.26 264.195L269.788 280.722L269.316 297.248C272.362 297.335 276.034 296.794 279.653 294.808C283.31 292.8 285.8 289.926 287.395 287.114C290.188 282.189 290.559 276.875 290.638 273.767C290.806 267.068 289.567 257.852 288.199 247.954L271.822 250.218ZM269.788 280.722L270.358 264.198C269.591 264.172 270.55 264.115 272.091 264.632C274.192 265.337 276.655 266.848 278.486 269.394C279.259 270.468 279.697 271.426 279.933 272.038C280.161 272.632 280.243 273.016 280.248 273.036C280.254 273.063 280.221 272.915 280.164 272.493C280.108 272.079 280.045 271.53 279.969 270.773L263.518 272.418L247.067 274.063C247.241 275.803 247.483 277.98 247.937 280.067C248.378 282.094 249.295 285.44 251.642 288.703C257.478 296.816 266.421 297.149 269.218 297.245L269.788 280.722ZM263.518 272.418L280 271.117C279.87 269.475 279.641 266.863 278.936 264.273C278.15 261.388 276.411 257.123 272.224 253.712C268.276 250.494 264.039 249.607 261.652 249.275C259.308 248.948 256.882 248.937 255.214 248.937V265.47V282.003C257.02 282.003 257.306 282.055 257.09 282.025C256.832 281.989 254.142 281.632 251.337 279.346C248.294 276.867 247.297 273.937 247.03 272.958C246.844 272.274 246.911 272.141 247.036 273.719L263.518 272.418ZM255.214 265.47V248.937C253.427 248.937 249.205 248.863 245.285 250.012C242.862 250.723 239.911 252.043 237.208 254.554C234.487 257.082 232.915 259.981 232.009 262.501C230.517 266.649 230.454 271.071 230.414 273.329C230.373 275.643 230.411 280.281 230.378 283.783L246.91 283.942L263.443 284.101C263.465 281.796 263.462 279.772 263.46 278.065C263.457 276.307 263.456 275.001 263.475 273.911C263.495 272.8 263.532 272.279 263.552 272.08C263.579 271.829 263.536 272.547 263.125 273.692C262.653 275.004 261.661 276.971 259.714 278.78C257.784 280.573 255.801 281.388 254.589 281.743C253.531 282.053 252.898 282.06 253.23 282.038C253.516 282.019 254.065 282.003 255.214 282.003V265.47ZM246.91 283.942L230.38 283.633C230.295 288.158 230.263 291.888 230.372 294.847C230.468 297.463 230.697 301.115 231.876 304.617C233.496 309.427 236.669 313.395 241.252 315.887C242.91 316.789 244.433 317.311 245.076 317.53C246.208 317.915 245.882 317.787 246.433 317.984L251.994 302.414L257.555 286.843C257.07 286.67 256.641 286.527 256.33 286.425C255.952 286.3 255.863 286.272 255.723 286.224C255.422 286.122 256.116 286.33 257.049 286.838C258.18 287.453 259.644 288.482 260.969 290.09C262.25 291.644 262.9 293.132 263.215 294.067C263.501 294.918 263.544 295.413 263.519 295.217C263.498 295.051 263.451 294.579 263.416 293.632C263.345 291.692 263.356 288.792 263.441 284.251L246.91 283.942ZM251.994 302.414L246.131 317.872C246.486 318.007 246.828 318.135 247.114 318.241C247.415 318.354 247.651 318.442 247.872 318.526C248.326 318.699 248.52 318.78 248.597 318.814C248.8 318.904 247.803 318.507 246.605 317.401C245.197 316.101 244.242 314.518 243.748 313.061C243.342 311.863 243.426 311.27 243.426 311.904H259.959H276.492C276.492 306.078 275.167 298.765 269.034 293.103C266.459 290.727 263.778 289.376 262.027 288.597C260.489 287.914 258.543 287.215 257.858 286.955L251.994 302.414ZM259.959 311.904H243.426C243.426 312.843 243.218 310.862 244.747 308.251C245.589 306.814 246.719 305.592 247.985 304.673C249.172 303.811 250.182 303.429 250.632 303.284C251.239 303.089 250.972 303.282 248.536 303.396C246.283 303.501 243.366 303.505 239.115 303.505V320.038V336.571C243.082 336.571 246.88 336.576 250.077 336.426C253.09 336.286 257.007 335.971 260.771 334.758C265.063 333.376 270.016 330.536 273.281 324.962C276.149 320.063 276.492 315.032 276.492 311.904H259.959ZM391.243 321.055L390.771 304.528L390.676 304.531L390.582 304.535L391.243 321.055ZM380.058 311.734L365.27 304.34L365.177 304.528L365.088 304.717L380.058 311.734ZM348.029 313.09L360.09 301.782L360.053 301.742L360.015 301.703L348.029 313.09ZM346.842 199.208L358.752 210.677L358.841 210.584L358.929 210.489L346.842 199.208ZM377.855 199.208L363.067 206.602L363.734 207.936L364.628 209.128L377.855 199.208ZM388.362 191.921L389.023 175.401L388.692 175.388H388.362V191.921ZM394.971 212.257L411.456 210.989L411.446 210.867L411.435 210.745L394.971 212.257ZM396.496 230.56L413.015 231.248L413.03 230.904V230.56H396.496ZM392.09 237.338L395.92 253.422L396.5 253.284L397.069 253.104L392.09 237.338ZM378.363 224.628L362.728 230.003L362.767 230.116L362.807 230.229L378.363 224.628ZM358.197 212.766L345.703 201.938L345.626 202.026L345.55 202.116L358.197 212.766ZM364.298 297.16L375.579 285.073L375.323 284.835L375.057 284.607L364.298 297.16ZM379.211 295.296L363.973 288.88L363.973 288.88L379.211 295.296ZM375.482 270.893L374.764 287.411L374.779 287.411L374.794 287.412L375.482 270.893ZM402.936 260.894L419.466 260.57L419.462 260.365L419.453 260.16L402.936 260.894ZM400.394 270.723L392.555 256.166L391.396 256.79L390.351 257.59L400.394 270.723ZM398.021 309.192L414.534 310.018L414.539 309.911L414.543 309.804L398.021 309.192ZM391.243 321.055L390.582 304.535C390.675 304.531 392.758 304.41 395.438 305.597C398.768 307.072 401.075 309.668 402.298 312.24C403.231 314.203 403.284 315.638 403.25 315.27C403.229 315.042 403.201 314.437 403.201 312.921H386.667H370.134C370.134 314.455 370.148 316.413 370.323 318.308C370.485 320.063 370.887 323.183 372.434 326.438C374.271 330.302 377.458 333.798 382.043 335.83C385.978 337.573 389.692 337.664 391.904 337.575L391.243 321.055ZM386.667 312.921H403.201C403.201 312.02 403.359 307.629 402.827 304.441C402.523 302.617 401.653 298.49 398.378 294.708C394.386 290.1 389.031 288.422 384.464 288.422V304.956V321.489C383.04 321.489 381.086 321.261 378.94 320.369C376.719 319.445 374.834 318.032 373.384 316.358C370.76 313.328 370.281 310.303 370.211 309.877C370.102 309.225 370.141 308.986 370.148 309.81C370.156 310.858 370.134 311.125 370.134 312.921H386.667ZM384.464 304.956V288.422C378.806 288.422 374.471 290.973 371.739 293.624C369.435 295.859 368.135 298.271 367.576 299.351C366.956 300.549 366.398 301.848 366.126 302.47C365.769 303.284 365.528 303.825 365.27 304.34L380.058 311.734L394.846 319.128C395.52 317.779 396.062 316.541 396.416 315.734C396.611 315.288 396.729 315.018 396.839 314.776C396.944 314.543 396.972 314.493 396.946 314.543C396.925 314.584 396.77 314.883 396.482 315.314C396.199 315.736 395.645 316.502 394.764 317.357C393.859 318.235 392.499 319.313 390.628 320.159C388.689 321.035 386.582 321.489 384.464 321.489V304.956ZM380.058 311.734L365.088 304.717C364.705 305.534 364.639 305.26 365.304 304.788C365.636 304.552 366.007 304.372 366.352 304.266C366.686 304.164 366.825 304.183 366.67 304.183V320.716V337.249C373.126 337.249 379.249 335.448 384.474 331.73C389.545 328.122 392.869 323.358 395.028 318.752L380.058 311.734ZM366.67 320.716V304.183C363.349 304.183 361.458 303.241 360.09 301.782L348.029 313.09L335.967 324.398C344.768 333.785 356.094 337.249 366.67 337.249V320.716ZM348.029 313.09L360.015 301.703C357.942 299.52 355.32 295.091 353.301 286.481C351.303 277.959 350.157 266.462 350.157 251.404H333.624H317.091C317.091 267.867 318.318 282.129 321.107 294.028C323.876 305.839 328.456 316.492 336.042 324.477L348.029 313.09ZM333.624 251.404H350.157C350.157 226.192 354.751 214.831 358.752 210.677L346.842 199.208L334.933 187.74C321.309 201.888 317.091 225.099 317.091 251.404H333.624ZM346.842 199.208L358.929 210.489C360.045 209.294 361.649 208.285 365.314 208.285V191.752V175.219C354.067 175.219 343.13 178.955 334.756 187.927L346.842 199.208ZM365.314 191.752V208.285C365.694 208.285 365.719 208.326 365.49 208.268C365.24 208.204 364.824 208.056 364.349 207.762C363.873 207.467 363.511 207.134 363.272 206.857C363.047 206.597 363 206.469 363.067 206.602L377.855 199.208L392.643 191.814C390.376 187.28 386.911 182.837 381.744 179.64C376.581 176.446 370.882 175.219 365.314 175.219V191.752ZM377.855 199.208L364.628 209.128C364.991 209.613 367.233 212.873 370.265 215.147C374.979 218.682 379.823 219.131 382.769 219.131V202.598V186.064C382.856 186.064 383.92 186.057 385.393 186.434C387.119 186.877 388.738 187.668 390.105 188.693C390.705 189.144 391.143 189.553 391.414 189.827C391.678 190.093 391.831 190.277 391.848 190.298C391.865 190.318 391.821 190.265 391.674 190.073C391.524 189.878 391.349 189.645 391.082 189.288L377.855 199.208ZM382.769 202.598V219.131C385.114 219.131 387.674 218.678 390.202 217.529C392.724 216.382 394.704 214.774 396.187 213.1C398.922 210.011 399.947 206.726 400.355 205.197C400.813 203.482 401.007 201.916 401.102 201.071C401.164 200.52 401.312 198.96 401.313 198.956C401.364 198.458 401.381 198.44 401.341 198.632C401.31 198.785 401.117 199.727 400.489 200.983C399.822 202.316 398.464 204.397 395.949 206.091C393.311 207.869 390.539 208.455 388.362 208.455V191.921V175.388C384.829 175.388 380.976 176.308 377.472 178.669C374.09 180.947 372.08 183.862 370.913 186.196C369.784 188.453 369.243 190.562 368.954 191.966C368.657 193.41 368.507 194.727 368.421 195.563C368.283 196.894 368.323 196.668 368.244 197.368C368.198 197.775 368.218 197.377 368.409 196.662C368.55 196.134 369.213 193.683 371.431 191.178C372.656 189.795 374.338 188.417 376.516 187.427C378.7 186.434 380.87 186.064 382.769 186.064V202.598ZM388.362 191.921L387.701 208.441C386.357 208.388 383.074 207.92 380.027 205.231C378.708 204.067 377.911 202.89 377.468 202.096C377.25 201.704 377.109 201.388 377.026 201.187C376.943 200.985 376.905 200.864 376.901 200.85C376.899 200.844 376.975 201.093 377.097 201.722C377.216 202.337 377.353 203.174 377.505 204.306C377.815 206.604 378.128 209.641 378.507 213.769L394.971 212.257L411.435 210.745C410.732 203.088 410.037 196.033 408.466 191C407.61 188.257 405.884 183.948 401.908 180.439C397.462 176.515 392.485 175.54 389.023 175.401L388.362 191.921ZM394.971 212.257L378.486 213.525C378.843 218.164 379.249 222.001 379.535 224.885C379.846 228.009 379.963 229.566 379.963 230.56H396.496H413.03C413.03 227.655 412.723 224.467 412.44 221.618C412.133 218.528 411.777 215.163 411.456 210.989L394.971 212.257ZM396.496 230.56L379.977 229.871C379.924 231.144 379.755 228.925 381.512 226.181C383.698 222.763 386.688 221.706 387.111 221.573L392.09 237.338L397.069 253.104C400.712 251.954 405.82 249.541 409.363 244.005C412.475 239.142 412.899 234.043 413.015 231.248L396.496 230.56ZM392.09 237.338L388.261 221.255C387.72 221.383 387.56 221.399 387.641 221.389C387.73 221.378 388.285 221.314 389.139 221.395C390.051 221.481 391.214 221.723 392.466 222.272C393.722 222.823 394.711 223.527 395.428 224.181C396.102 224.798 396.448 225.291 396.527 225.407C396.602 225.517 396.512 225.402 396.27 224.911C395.749 223.852 395.016 222.074 393.919 219.028L378.363 224.628L362.807 230.229C363.999 233.538 365.236 236.738 366.605 239.518C367.92 242.189 369.916 245.661 373.119 248.589C381.614 256.353 391.462 254.484 395.92 253.422L392.09 237.338ZM378.363 224.628L393.999 219.254C392.171 213.936 389.879 207.821 386.354 203.039C384.394 200.382 381.692 197.608 377.953 195.571C374.111 193.479 370.107 192.674 366.331 192.674V209.207V225.74C365.352 225.74 363.783 225.507 362.139 224.611C360.598 223.772 359.855 222.82 359.739 222.662C359.676 222.577 359.976 222.975 360.581 224.341C361.169 225.668 361.861 227.48 362.728 230.003L378.363 224.628ZM366.331 209.207V192.674C359.357 192.674 351.575 195.162 345.703 201.938L358.197 212.766L370.691 223.594C370.111 224.263 369.275 224.892 368.288 225.302C367.36 225.687 366.638 225.74 366.331 225.74V209.207ZM358.197 212.766L345.55 202.116C341.49 206.938 339.738 212.87 338.819 217.709C337.832 222.903 337.427 228.991 337.427 235.813H353.96H370.493C370.493 230.095 370.851 226.27 371.305 223.879C371.826 221.135 372.192 221.814 370.843 223.415L358.197 212.766ZM353.96 235.813H337.427C337.427 255.769 338.543 270.982 340.654 282.244C342.57 292.46 345.915 303.18 353.538 309.713L364.298 297.16L375.057 284.607C376.748 286.057 374.925 285.592 373.155 276.15C371.58 267.753 370.493 254.834 370.493 235.813H353.96ZM364.298 297.16L353.017 309.247C359.63 315.419 367.155 316.574 371.924 316.574V300.041V283.508C372.068 283.508 372.587 283.521 373.313 283.755C374.116 284.014 374.93 284.468 375.579 285.073L364.298 297.16ZM371.924 300.041V316.574C375.945 316.574 381.099 315.824 385.929 312.515C390.714 309.236 393.132 304.838 394.448 301.712L379.211 295.296L363.973 288.88C363.973 288.879 364.02 288.767 364.123 288.577C364.226 288.385 364.398 288.091 364.655 287.735C365.195 286.985 366.037 286.06 367.239 285.237C368.444 284.411 369.623 283.953 370.551 283.719C370.991 283.609 371.339 283.557 371.568 283.532C371.794 283.508 371.92 283.508 371.924 283.508V300.041ZM379.211 295.296L394.448 301.712C397.254 295.048 397.778 286.819 397.778 276.316H381.244H364.711C364.711 281.393 364.545 284.632 364.306 286.751C364.069 288.855 363.822 289.238 363.973 288.88L379.211 295.296ZM381.244 276.316H397.778C397.778 273.598 397.764 264.255 389.613 258.327C385.999 255.698 382.33 254.98 380.47 254.71C378.7 254.454 376.822 254.401 376.171 254.374L375.482 270.893L374.794 287.412C376.176 287.469 376.035 287.48 375.727 287.435C375.329 287.378 372.846 287.019 370.164 285.069C367.087 282.831 365.653 279.939 365.08 278.027C364.627 276.517 364.711 275.648 364.711 276.316H381.244ZM375.482 270.893L376.201 254.375C375.263 254.334 375.791 254.304 376.717 254.523C377.923 254.808 380.346 255.623 382.62 257.848C384.86 260.041 385.675 262.35 385.944 263.397C386.175 264.3 386.084 264.568 386.084 263.606H369.551H353.018C353.018 267.249 353.255 275.377 359.491 281.48C365.678 287.536 373.851 287.371 374.764 287.411L375.482 270.893ZM369.551 263.606H386.084C386.084 262.869 386.133 262.732 386.09 262.977C386.044 263.239 385.85 264.196 385.181 265.442C384.453 266.797 383.374 268.1 381.998 269.133C380.704 270.104 379.567 270.523 379.04 270.682C378.558 270.828 378.436 270.802 378.948 270.749C379.441 270.698 380.22 270.651 381.449 270.627C382.67 270.604 384.098 270.607 385.89 270.618C387.625 270.63 389.689 270.649 391.921 270.649V254.116V237.582C388.143 237.582 383.887 237.508 380.817 237.567C377.808 237.624 373.55 237.797 369.467 239.032C364.563 240.515 359.316 243.715 356.05 249.795C353.337 254.847 353.018 260.121 353.018 263.606H369.551ZM391.921 254.116V270.649C392.812 270.649 393.749 270.633 394.324 270.626C395.001 270.618 395.386 270.619 395.66 270.628C396.415 270.651 395.352 270.723 393.71 270.098C392.761 269.737 391.583 269.135 390.4 268.161C389.198 267.171 388.268 266.024 387.603 264.87C386.362 262.716 386.398 261.169 386.419 261.628L402.936 260.894L419.453 260.16C419.304 256.807 418.641 252.506 416.256 248.366C413.589 243.735 409.624 240.773 405.468 239.192C401.877 237.826 398.505 237.633 396.676 237.577C395.143 237.53 392.496 237.582 391.921 237.582V254.116ZM402.936 260.894L386.406 261.218C386.447 263.305 386.436 264.472 386.405 265.13C386.366 265.959 386.323 265.126 386.764 263.705C387.027 262.857 387.488 261.705 388.288 260.455C389.115 259.163 390.08 258.119 391.031 257.31C391.902 256.569 392.632 256.138 392.836 256.02C392.92 255.971 393.116 255.865 392.555 256.166L400.394 270.723L408.232 285.28C408.276 285.257 408.32 285.233 408.391 285.196C408.453 285.163 408.543 285.114 408.637 285.063C408.82 284.965 409.115 284.804 409.45 284.61C410.102 284.231 411.232 283.538 412.458 282.495C415.436 279.962 417.322 276.803 418.345 273.505C419.168 270.855 419.358 268.328 419.435 266.689C419.52 264.879 419.51 262.805 419.466 260.57L402.936 260.894ZM400.394 270.723L390.351 257.59C387.669 259.641 383.961 263.045 382.077 268.796C380.691 273.027 380.81 277.459 380.81 279.197H397.344H413.877C413.877 277.942 413.893 277.48 413.906 277.287C413.917 277.137 413.883 277.921 413.5 279.09C413.051 280.46 412.337 281.732 411.489 282.766C410.781 283.63 410.231 284.015 410.437 283.857L400.394 270.723ZM397.344 279.197H380.81C380.81 286.4 381.083 291.963 381.293 296.598C381.506 301.276 381.641 304.765 381.499 308.58L398.021 309.192L414.543 309.804C414.741 304.469 414.537 299.738 414.326 295.096C414.113 290.41 413.877 285.55 413.877 279.197H397.344ZM398.021 309.192L381.509 308.367C381.424 310.067 381.353 311.035 381.264 311.707C381.168 312.424 381.149 311.972 381.565 311.015C382.067 309.859 383.25 307.881 385.595 306.32C387.892 304.791 389.971 304.551 390.771 304.528L391.243 321.055L391.715 337.582C395.48 337.474 399.847 336.556 403.918 333.846C408.037 331.104 410.481 327.443 411.894 324.189C414.234 318.8 414.404 312.616 414.534 310.018L398.021 309.192Z" fill="white" mask="url(#path-4-outside-1_914_73599)"/>
<path d="M340.733 47.2666V105.134C340.733 114.265 333.331 121.667 324.2 121.667H187.8C178.669 121.667 171.267 114.265 171.267 105.134V47.2666H340.733Z" stroke="white" stroke-width="16.5333"/>
<path d="M340.733 464.733V406.866C340.733 397.735 333.331 390.333 324.2 390.333H187.8C178.669 390.333 171.267 397.735 171.267 406.866V464.733H340.733Z" stroke="white" stroke-width="16.5333"/>
</g>
<defs>
<clipPath id="clip0_914_73599">
<rect width="512" height="512" fill="white"/>
</clipPath>
</defs>
</svg>
